<?xml version="1.0" encoding="utf-8"?>
<!-- Generator: Adobe Illustrator 19.2.1, SVG Export Plug-In . SVG Version: 6.00 Build 0)  -->
<svg version="1.1" id="Layer_1" xmlns="http://www.w3.org/2000/svg" xmlns:xlink="http://www.w3.org/1999/xlink" x="0px" y="0px"
	 viewBox="0 0 100 100" style="enable-background:new 0 0 100 100;" xml:space="preserve">
<g>
	<path d="M50.2,25.9c12.2,0,22,11.6,22,25.8c0,0.3,0,0.7,0,1c-1.4,10.9-10.8,19.5-22.1,19.5c-11.3,0-20.6-8.5-22-19.4
		c0-0.3,0-0.6,0-0.9C28.1,37.6,38,25.9,50.2,25.9 M50.2,0.9c-26,0-47.1,22.8-47.1,50.9L2.9,50c0,26.1,21.1,47.2,47.2,47.2
		c26.1,0,47.3-21.1,47.3-47.2l-0.2,1.7C97.2,23.6,76.2,0.9,50.2,0.9L50.2,0.9z"/>
</g>
</svg>
